<?xml version="1.0" standalone="no"?>
<!DOCTYPE svg PUBLIC "-//W3C//DTD SVG 20010904//EN"
 "http://www.w3.org/TR/2001/REC-SVG-20010904/DTD/svg10.dtd">
<svg version="1.0" xmlns="http://www.w3.org/2000/svg"
 width="1024.000000pt" height="1024.000000pt" viewBox="0 0 1024.000000 1024.000000"
 preserveAspectRatio="xMidYMid meet">

<g transform="translate(0.000000,1024.000000) scale(0.100000,-0.100000)"
fill="#1a531a" stroke="none">
<path d="M5033 9151 c-67 -17 -146 -66 -194 -120 -57 -64 -89 -140 -97 -230
l-5 -63 -66 -30 c-221 -100 -523 -206 -741 -259 -127 -32 -134 -33 -144 -15
-64 108 -150 166 -255 173 -211 15 -367 -183 -303 -384 l20 -63 -128 -124
c-71 -68 -174 -160 -229 -205 -110 -88 -338 -251 -352 -251 -4 0 -11 5 -14 10
-4 6 -30 22 -58 37 -45 24 -64 27 -142 27 -105 1 -159 -20 -226 -86 -51 -50
-75 -99 -90 -182 -14 -77 -3 -142 37 -212 27 -48 91 -108 139 -131 38 -18 38
-2 3 -181 -30 -159 -80 -323 -158 -518 -108 -273 -104 -266 -173 -281 -238
-53 -316 -355 -135 -518 30 -27 69 -50 97 -58 l46 -14 32 -144 c51 -223 97
-575 105 -798 l3 -84 -41 -14 c-61 -20 -157 -112 -191 -181 -23 -49 -27 -70
-28 -147 0 -80 3 -97 29 -149 60 -123 155 -186 292 -194 69 -4 89 -1 141 20
l61 25 105 -121 c133 -153 174 -204 280 -347 112 -151 267 -389 267 -410 0 -9
-6 -22 -14 -28 -8 -6 -24 -35 -37 -64 -34 -78 -33 -192 3 -269 35 -76 98 -142
167 -175 49 -24 68 -28 146 -28 78 0 98 4 145 27 30 15 78 50 107 79 l52 51
193 -52 c408 -110 682 -195 1019 -315 l46 -16 6 -59 c7 -76 46 -147 114 -210
68 -62 132 -85 238 -85 67 0 90 5 142 29 104 47 188 162 201 271 l4 43 237 81
c220 74 463 150 641 199 423 116 422 116 433 96 19 -35 82 -86 137 -113 47
-22 68 -26 145 -25 107 0 160 21 234 93 112 110 137 282 61 417 l-31 55 78
121 c88 135 219 319 302 423 87 110 273 325 281 325 4 0 33 -9 66 -21 84 -29
198 -23 272 15 68 35 129 97 160 166 35 74 37 210 5 282 -40 87 -168 198 -229
198 -15 0 -16 11 -10 108 13 195 55 509 95 712 22 110 43 205 46 210 3 6 13
10 21 10 24 0 92 39 133 76 58 52 85 122 85 219 0 67 -4 88 -26 130 -47 91
-138 155 -238 167 -21 3 -33 21 -81 129 -105 233 -191 502 -233 728 -9 46 -16
87 -16 92 0 5 22 20 49 33 186 95 223 368 70 517 -108 106 -281 120 -411 34
l-38 -25 -121 85 c-178 126 -298 225 -447 370 l-133 130 17 40 c21 48 24 155
5 208 -20 58 -82 129 -142 162 -48 27 -63 30 -139 30 -73 0 -92 -4 -136 -27
-53 -28 -103 -77 -129 -128 -18 -35 -17 -35 -123 -10 -218 52 -481 142 -712
244 -104 46 -125 59 -128 78 -8 75 -27 148 -49 191 -61 122 -176 196 -312 203
-42 2 -91 -1 -108 -5z m-214 -600 l40 -55 -28 -50 c-16 -28 -52 -94 -81 -146
-55 -100 -219 -352 -267 -408 l-28 -33 -110 75 c-177 121 -282 185 -415 253
-69 36 -126 67 -127 71 -7 20 26 34 157 67 196 49 409 120 625 209 99 41 183
73 187 72 3 0 24 -25 47 -55z m772 10 c193 -83 385 -151 581 -207 104 -29 204
-56 223 -60 27 -5 35 -11 34 -28 0 -17 -25 -34 -131 -86 -72 -36 -217 -123
-322 -193 l-191 -128 -28 33 c-52 61 -234 342 -287 443 -29 55 -61 115 -72
133 l-20 33 24 27 c14 15 33 39 43 55 9 15 21 27 25 27 4 0 59 -22 121 -49z
m-476 -161 c34 0 84 7 111 15 27 8 50 15 52 15 1 0 18 -34 37 -75 56 -121 222
-387 333 -533 30 -39 28 -42 -74 -107 -295 -186 -612 -186 -911 2 l-102 64 35
47 c112 150 264 391 329 523 l37 76 46 -13 c25 -8 73 -14 107 -14z m-1184
-359 c68 -37 158 -90 199 -118 197 -132 230 -155 235 -163 3 -5 -37 -56 -90
-113 l-95 -104 -52 26 c-165 82 -388 -28 -437 -215 l-11 -41 -76 -7 c-43 -3
-101 -6 -131 -6 l-54 0 6 118 c9 163 31 337 60 467 14 60 25 113 25 116 0 4
21 10 47 14 59 9 129 44 167 83 35 37 36 37 207 -57z m2664 1 c22 -11 61 -23
87 -27 52 -8 46 3 78 -152 38 -185 68 -539 47 -559 -4 -4 -61 -3 -128 2 l-121
9 -23 62 c-32 89 -82 146 -163 185 -57 27 -78 32 -142 32 -58 0 -85 -5 -117
-22 -23 -12 -46 -22 -52 -22 -5 0 -50 45 -101 101 -97 107 -99 112 -45 142 12
6 91 58 176 115 84 57 207 130 273 163 l119 60 36 -34 c20 -19 54 -44 76 -55z
m394 -56 c31 -33 112 -108 181 -169 113 -99 182 -153 383 -299 l64 -47 -13
-52 c-8 -29 -15 -54 -17 -56 -13 -12 -332 -49 -519 -59 l-128 -7 0 75 c0 179
-34 454 -75 608 -8 30 -13 55 -12 55 1 1 13 9 26 18 29 19 28 20 110 -67z
m-3624 62 c14 -6 25 -15 25 -20 0 -5 -11 -53 -25 -106 -35 -139 -54 -284 -62
-466 l-6 -159 -121 7 c-202 12 -510 47 -523 60 -3 2 -9 19 -13 38 -5 18 -11
42 -15 53 -5 17 14 34 112 101 173 120 311 233 458 376 71 70 133 127 137 128
4 0 19 -5 33 -12z m1223 -435 c190 -119 334 -163 532 -163 208 0 335 41 553
177 74 47 91 53 101 42 7 -8 52 -58 100 -111 l88 -98 -27 -57 c-23 -46 -28
-72 -29 -128 0 -38 2 -76 5 -83 2 -8 -90 -60 -262 -149 l-266 -136 -38 41
c-115 128 -328 129 -453 4 l-41 -41 -263 134 -263 133 3 70 c3 56 -1 81 -22
134 -14 35 -26 68 -26 72 0 8 191 224 198 225 2 1 52 -29 110 -66z m-1730
-407 c103 -13 244 -27 315 -31 121 -7 127 -8 127 -29 0 -11 -5 -72 -10 -135
-16 -179 -75 -328 -175 -439 -42 -46 -211 -171 -218 -161 -2 2 -18 40 -36 84
-45 109 -152 314 -245 468 l-77 128 31 36 c17 19 39 51 48 69 9 20 23 34 34
34 10 0 103 -11 206 -24z m4760 -5 c6 -16 27 -47 47 -69 l36 -41 -82 -138
c-101 -169 -186 -331 -234 -443 -20 -47 -40 -88 -44 -93 -12 -12 -131 71 -202
142 -116 116 -181 284 -195 499 l-7 110 109 6 c122 8 487 46 493 52 2 2 19 4
37 4 26 0 34 -5 42 -29z m-795 -160 c10 -239 82 -422 226 -574 57 -60 149
-130 211 -162 19 -10 36 -19 38 -20 1 -1 -5 -22 -14 -46 -19 -55 -50 -204 -59
-286 l-7 -62 -51 -17 c-36 -12 -71 -35 -112 -74 l-60 -57 -210 112 c-146 78
-209 116 -205 126 2 8 4 51 4 95 0 70 -5 90 -29 139 -37 71 -109 138 -181 164
-30 12 -59 21 -64 21 -6 0 -10 104 -10 270 0 249 1 271 18 276 96 28 180 105
215 195 l17 44 134 -9 133 -9 6 -126z m-3109 78 c36 -77 80 -121 156 -156 l60
-28 0 -267 0 -267 -42 -11 c-91 -24 -173 -93 -219 -182 -18 -33 -23 -61 -23
-123 -1 -44 2 -89 6 -100 9 -23 11 -22 -182 -122 -69 -36 -149 -79 -178 -95
l-52 -30 -45 50 c-31 35 -65 58 -110 78 -57 25 -65 32 -69 59 -18 131 -30 196
-51 272 -13 48 -23 88 -22 88 132 66 285 203 350 315 83 143 127 310 127 481
l0 88 78 4 c42 1 102 4 132 4 l55 2 29 -60z m824 -191 l263 -133 -6 -56 c-4
-43 -1 -72 16 -123 30 -91 83 -150 174 -192 l71 -33 -2 -53 c0 -29 -2 -151 -2
-270 l-2 -216 -37 -13 c-70 -22 -118 -51 -168 -100 l-50 -49 -200 112 c-110
61 -224 124 -253 141 l-54 29 7 58 c17 144 -71 296 -199 345 l-46 18 0 271 0
272 60 18 c42 13 75 32 108 62 26 24 49 43 52 44 3 0 123 -59 268 -132z m1464
96 c42 -37 130 -84 161 -84 16 0 17 -20 17 -273 l0 -273 -55 -23 c-63 -26
-130 -94 -166 -168 -19 -39 -23 -65 -24 -141 l0 -93 -50 -31 c-27 -17 -92 -55
-145 -83 -52 -29 -140 -78 -195 -109 l-100 -55 -50 48 c-53 51 -102 80 -172
101 l-43 13 0 273 0 272 50 17 c63 21 143 93 178 159 21 41 27 67 29 135 l2
84 258 133 c142 73 260 133 262 133 2 1 21 -15 43 -35z m-3495 -129 c79 -130
273 -507 273 -530 0 -7 -21 -21 -47 -31 -230 -84 -439 -181 -552 -257 -46 -32
-86 -57 -88 -57 -2 0 -15 7 -28 16 l-24 16 30 60 c43 86 121 283 167 428 38
116 102 399 102 448 0 22 23 31 70 28 21 -1 37 -21 97 -121z m5367 116 c15 -6
25 -38 52 -172 47 -236 150 -544 244 -729 17 -33 30 -61 30 -64 0 -2 -13 -9
-29 -16 -27 -11 -33 -9 -83 28 -98 73 -317 178 -555 267 -40 15 -73 32 -73 39
0 34 216 444 323 614 28 43 48 50 91 33z m-5025 -868 c26 -115 41 -200 41
-235 0 -22 -4 -28 -23 -28 -62 0 -172 -92 -215 -180 -23 -47 -27 -67 -27 -145
0 -78 4 -97 28 -147 32 -66 97 -127 167 -159 l48 -22 -28 -81 c-34 -98 -96
-236 -107 -236 -5 0 -69 48 -143 107 -159 127 -340 305 -428 422 l-62 83 36
40 c87 97 104 222 48 355 -6 13 147 106 264 160 75 35 360 151 374 152 3 1 15
-38 27 -86z m4743 18 c96 -37 201 -82 235 -100 75 -37 233 -130 233 -136 0 -3
-8 -24 -17 -47 -10 -26 -17 -71 -17 -113 -1 -82 22 -141 78 -202 l36 -40 -62
-84 c-84 -113 -256 -283 -410 -407 -71 -56 -137 -106 -148 -112 -19 -10 -24
-4 -61 75 -33 69 -89 216 -89 232 0 1 17 10 37 18 77 32 140 91 175 162 29 60
33 77 33 148 0 67 -5 90 -29 142 -41 89 -120 157 -218 187 -12 4 -18 16 -18
35 0 53 54 311 65 311 2 0 82 -31 177 -69z m-3050 -476 c187 -105 197 -111
190 -135 -8 -29 -9 -146 -2 -204 l5 -40 -120 -69 c-66 -38 -178 -103 -248
-144 l-128 -76 -32 30 c-54 52 -114 76 -200 81 -88 5 -148 -12 -209 -59 -20
-16 -42 -29 -47 -29 -10 0 -443 321 -479 355 -11 10 -11 22 3 69 9 31 15 79
14 107 l-3 50 214 115 c118 63 216 114 218 114 3 0 20 -14 40 -31 60 -53 116
-72 212 -73 72 0 93 4 140 26 30 15 71 40 90 56 l34 29 56 -31 c31 -17 144
-80 252 -141z m1493 146 c77 -75 195 -105 303 -77 54 14 83 29 167 90 9 7 32
0 72 -22 32 -18 129 -69 216 -114 l157 -83 0 -65 c1 -36 7 -83 15 -105 8 -22
15 -43 15 -46 0 -6 -202 -158 -457 -346 -38 -28 -45 -28 -67 -4 -9 10 -44 31
-78 46 -54 24 -70 27 -142 23 -90 -5 -148 -28 -203 -80 l-31 -30 -109 64 c-59
36 -172 102 -251 148 l-143 83 8 41 c10 50 10 150 1 192 l-7 32 132 73 c159
87 315 176 342 195 26 18 24 19 60 -15z m2191 -423 c-13 -51 -77 -441 -91
-563 -8 -71 -18 -182 -22 -245 -7 -136 -14 -160 -45 -160 -13 0 -48 -14 -78
-30 l-54 -30 -79 77 c-85 84 -205 223 -256 296 l-31 45 73 54 c210 154 414
349 522 496 33 45 62 82 64 82 2 0 1 -10 -3 -22z m-6118 -103 c117 -147 293
-310 490 -455 34 -25 61 -50 62 -56 1 -26 -166 -227 -287 -347 l-69 -68 -45
26 c-24 14 -61 30 -81 35 -45 13 -43 4 -58 220 -6 91 -18 217 -26 280 -13 106
-65 401 -80 460 -9 32 -5 28 94 -95z m5079 -70 l47 -12 37 -106 c20 -58 55
-143 77 -188 23 -45 42 -86 42 -93 0 -6 -55 -47 -121 -91 -297 -197 -430 -437
-433 -782 l-1 -132 -148 -36 c-82 -20 -150 -35 -151 -33 -2 2 -9 18 -16 37
-19 49 -97 124 -156 150 l-52 24 -7 191 c-4 105 -5 218 -3 251 l3 59 55 21
c78 29 170 121 195 195 21 61 24 174 7 206 -15 28 -9 32 263 234 121 90 222
167 223 172 2 4 23 -6 48 -23 24 -18 65 -37 91 -44z m-3749 -125 l244 -183 -9
-36 c-4 -20 -8 -65 -8 -101 1 -127 87 -248 206 -291 l59 -22 0 -251 0 -251
-48 -17 c-63 -23 -126 -79 -164 -145 -22 -38 -35 -52 -47 -49 -9 3 -72 19
-141 36 l-126 31 -1 132 c0 152 -16 239 -66 360 -68 168 -196 313 -379 431
-60 39 -108 76 -108 83 0 7 16 46 36 86 42 83 80 180 98 251 13 48 14 49 65
62 28 8 68 25 89 39 20 14 41 23 47 21 5 -2 119 -86 253 -186z m1418 145 c49
-45 140 -91 179 -91 13 0 15 -41 15 -279 l0 -279 -52 -18 c-68 -25 -140 -94
-173 -167 -22 -46 -27 -72 -26 -135 l0 -77 -82 -37 c-45 -21 -138 -64 -207
-96 -69 -32 -153 -71 -187 -87 l-62 -27 -49 40 c-28 24 -73 49 -105 59 l-57
18 0 253 c0 232 1 253 18 258 100 32 172 92 214 179 27 55 29 68 26 152 l-3
92 67 40 c36 22 142 84 235 137 92 52 172 100 178 105 13 13 12 14 71 -40z
m792 -72 c114 -67 226 -133 248 -146 l42 -23 -10 -43 c-22 -94 16 -219 88
-291 22 -21 67 -52 102 -68 l62 -30 0 -251 0 -252 -58 -17 c-38 -11 -75 -31
-104 -58 l-46 -40 -119 56 c-123 58 -179 85 -324 152 l-86 40 -1 74 c0 43 -7
91 -16 111 -40 97 -119 172 -208 199 l-38 11 0 273 0 272 65 22 c60 20 140 72
174 113 7 10 15 17 17 17 2 0 98 -55 212 -121z m-2778 -422 c127 -85 196 -144
253 -220 104 -137 143 -250 154 -449 5 -99 4 -118 -8 -118 -15 0 -364 88 -670
169 -86 22 -158 41 -161 41 -3 0 -8 28 -10 63 -3 34 -14 79 -24 99 l-18 38
120 122 c66 68 153 167 193 220 43 58 78 95 85 91 6 -4 45 -29 86 -56z m4666
-29 c38 -51 124 -150 192 -220 l124 -127 -21 -56 c-12 -31 -21 -76 -21 -100 0
-25 -3 -45 -7 -45 -5 0 -84 -20 -178 -45 -257 -68 -643 -165 -654 -165 -18 0
-12 167 9 270 36 174 137 334 276 437 97 72 198 142 205 142 4 1 38 -41 75
-91z m-2651 -677 c53 -58 142 -94 235 -95 66 -1 84 3 143 32 37 19 79 49 96
69 l30 37 83 -39 c46 -21 165 -78 265 -126 l181 -87 -10 -44 c-13 -58 -2 -137
27 -194 l24 -47 -121 -126 c-66 -69 -125 -125 -130 -123 -5 1 -43 23 -85 49
-202 122 -361 170 -538 159 -55 -3 -129 -13 -165 -21 -76 -19 -221 -86 -326
-151 l-74 -46 -43 48 c-23 27 -79 87 -123 133 l-81 85 23 50 c29 64 38 129 26
182 l-9 42 266 126 c146 69 267 126 269 126 1 0 18 -17 37 -39z m-1827 -163
l202 -52 0 -32 c0 -57 -92 -642 -102 -649 -4 -2 -127 -35 -132 -35 -2 0 -35
48 -72 108 -150 236 -352 499 -537 700 -54 59 -57 65 -44 85 7 12 16 27 20 33
5 8 75 -6 234 -47 126 -33 319 -83 431 -111z m4800 138 l20 -34 -75 -84 c-110
-121 -298 -358 -389 -489 -89 -127 -191 -285 -197 -303 -3 -8 -14 -6 -38 5
-19 9 -49 20 -66 23 -26 6 -33 13 -38 39 -3 18 -16 95 -30 172 -25 143 -61
382 -67 445 l-3 35 110 28 c101 25 748 194 752 196 0 1 10 -14 21 -33z m-4324
-260 c70 -19 132 -40 137 -47 5 -8 9 -25 9 -39 1 -84 114 -213 215 -245 75
-23 171 -17 239 16 l49 24 84 -90 c47 -49 98 -106 114 -126 l29 -37 -96 -62
c-211 -137 -428 -227 -649 -269 -58 -12 -112 -21 -120 -21 -7 0 -19 17 -26 38
-30 91 -95 165 -186 211 -24 12 -43 24 -43 26 0 3 16 98 35 212 34 201 64 405
65 431 0 16 -4 17 144 -22z m3316 31 c0 -24 29 -223 60 -411 22 -132 39 -240
38 -241 -2 -1 -24 -12 -49 -23 -25 -12 -64 -38 -87 -57 -40 -35 -102 -141
-102 -177 0 -22 5 -22 -111 -2 -146 25 -312 79 -444 145 -131 64 -316 177
-322 195 -2 7 46 64 107 127 l111 116 47 -22 c70 -32 199 -31 266 2 97 48 155
118 181 218 8 31 17 58 19 60 12 12 286 79 286 70z m-1525 -441 c68 -22 207
-93 285 -147 27 -18 25 -22 -53 -132 -51 -71 -212 -340 -273 -457 -32 -60 -30
-60 -127 -40 -43 8 -72 8 -108 1 -28 -6 -56 -11 -64 -11 -7 0 -43 57 -80 126
-81 153 -157 279 -242 402 -35 52 -63 95 -61 97 19 18 207 124 253 143 144 58
323 65 470 18z m-755 -349 c147 -221 299 -502 284 -523 -5 -6 -23 -30 -41 -53
-17 -23 -33 -47 -35 -53 -2 -6 -119 29 -273 80 -149 50 -351 114 -450 141 -99
28 -202 58 -230 66 -27 8 -97 27 -154 42 -119 31 -120 29 64 68 234 49 455
147 700 312 27 18 52 33 55 33 3 0 39 -51 80 -113z m1262 59 c146 -95 297
-174 422 -219 117 -43 329 -97 381 -97 14 0 25 -4 25 -9 0 -8 -60 -26 -440
-131 -179 -49 -545 -167 -703 -226 l-88 -32 -24 48 c-14 27 -29 51 -35 55 -20
12 -9 39 71 184 106 190 290 481 304 481 2 0 42 -24 87 -54z"/>
</g>
</svg>
